HIERARCHY
ROOT joint_Root
{
	OFFSET 0.0 0.0 0.0
	CHANNELS 6 Xposition Yposition Zposition Zrotation Xrotation Yrotation 
	JOINT Hips
	{
		OFFSET -0.726466 93.3139 -2.00062
		CHANNELS 6 Xposition Yposition Zposition Zrotation Xrotation Yrotation 
		JOINT Spine
		{
			OFFSET 15.7357 0.0 0.0
			CHANNELS 6 Xposition Yposition Zposition Zrotation Xrotation Yrotation 
			JOINT Chest
			{
				OFFSET 8.98455 -0.406207 0.0
				CHANNELS 6 Xposition Yposition Zposition Zrotation Xrotation Yrotation 
				JOINT Neck
				{
					OFFSET 16.3773 0.0 0.0
					CHANNELS 6 Xposition Yposition Zposition Zrotation Xrotation Yrotation 
					JOINT Head
					{
						OFFSET 6.45672 0.0 0.0
						CHANNELS 6 Xposition Yposition Zposition Zrotation Xrotation Yrotation 
						End Site
						{
							OFFSET 0.0 0.0 0.0
						}
					}
				}
				JOINT Shoulder_L
				{
					OFFSET 12.9942 -0.242716 4.98039
					CHANNELS 6 Xposition Yposition Zposition Zrotation Xrotation Yrotation 
					JOINT UpperArm_L
					{
						OFFSET 5.34809 0.0 0.0
						CHANNELS 6 Xposition Yposition Zposition Zrotation Xrotation Yrotation 
						JOINT LowerArm_L
						{
							OFFSET 24.3286 1.87007e-05 0.0
							CHANNELS 6 Xposition Yposition Zposition Zrotation Xrotation Yrotation 
							JOINT Hand_L
							{
								OFFSET 22.2916 0.0 0.0
								CHANNELS 6 Xposition Yposition Zposition Zrotation Xrotation Yrotation 
								End Site
								{
									OFFSET 0.0 0.0 0.0
								}
							}
						}
					}
				}
				JOINT Shoulder_R
				{
					OFFSET 12.9945 -0.242716 -4.98039
					CHANNELS 6 Xposition Yposition Zposition Zrotation Xrotation Yrotation 
					JOINT UpperArm_R
					{
						OFFSET -5.34813 0.0 0.0
						CHANNELS 6 Xposition Yposition Zposition Zrotation Xrotation Yrotation 
						JOINT LowerArm_R
						{
							OFFSET -24.3289 0.000322201 0.0
							CHANNELS 6 Xposition Yposition Zposition Zrotation Xrotation Yrotation 
							JOINT Hand_R
							{
								OFFSET -22.2915 -0.000108084 0.0
								CHANNELS 6 Xposition Yposition Zposition Zrotation Xrotation Yrotation 
								End Site
								{
									OFFSET 0.0 0.0 0.0
								}
							}
						}
					}
				}
			}
		}
		JOINT UpperLeg_L
		{
			OFFSET -2.19248 -6.46944 0.0
			CHANNELS 6 Xposition Yposition Zposition Zrotation Xrotation Yrotation 
			JOINT LowerLeg_L
			{
				OFFSET 39.0811 0.0 -1.23785e-05
				CHANNELS 6 Xposition Yposition Zposition Zrotation Xrotation Yrotation 
				JOINT Foot_L
				{
					OFFSET 40.9854 0.0 -1.26872e-05
					CHANNELS 6 Xposition Yposition Zposition Zrotation Xrotation Yrotation 
					JOINT Toes_L
					{
						OFFSET 11.7543 0.0 0.0
						CHANNELS 6 Xposition Yposition Zposition Zrotation Xrotation Yrotation 
						End Site
						{
							OFFSET 0.0 0.0 0.0
						}
					}
				}
			}
		}
		JOINT UpperLeg_R
		{
			OFFSET -2.19251 6.46944 0.0
			CHANNELS 6 Xposition Yposition Zposition Zrotation Xrotation Yrotation 
			JOINT LowerLeg_R
			{
				OFFSET -39.0811 -0.00228153 -0.0401928
				CHANNELS 6 Xposition Yposition Zposition Zrotation Xrotation Yrotation 
				JOINT Foot_R
				{
					OFFSET -40.9854 0.0 0.0
					CHANNELS 6 Xposition Yposition Zposition Zrotation Xrotation Yrotation 
					JOINT Toes_R
					{
						OFFSET -11.7543 0.0 0.0
						CHANNELS 6 Xposition Yposition Zposition Zrotation Xrotation Yrotation 
						End Site
						{
							OFFSET 0.0 0.0 0.0
						}
					}
				}
			}
		}
	}
}
MOTION
Frames:	4
Frame Time:	0.0333333
0.000000 0.000000 0.000000 0.000000 0.000000 -0.000000 -0.560001 92.152000 -1.797110 87.794400 -0.738643 3.201130 15.735700 0.000005 -0.000001 82.659700 85.615900 -82.199300 8.984550 -0.406207 -0.000000 0.935414 -1.147260 0.929406 16.377300 -0.000001 -0.000001 -1.169780 -2.556200 0.547461 6.456720 -0.000001 -0.000000 1.019590 -1.860520 -0.388401 12.994200 -0.242716 4.980390 -89.739100 -0.781484 -71.535900 5.348090 -0.000007 -0.000001 -69.185300 33.855500 -12.446400 24.328600 0.000019 0.000005 1.785780 4.056360 -23.784400 22.291600 -0.000001 0.000005 5.122330 5.543820 -8.417810 12.994500 -0.242716 -4.980390 88.067600 5.343730 -70.085500 -5.348130 -0.000001 -0.000004 -67.305900 27.803600 -12.162000 -24.328900 0.000322 -0.000009 -1.052080 -3.069010 -18.914600 -22.291500 -0.000108 -0.000004 9.335290 5.552490 -8.824250 -2.192480 -6.469440 -0.000000 -169.481000 -17.473900 -4.054440 39.081100 -0.000007 -0.000012 -0.173746 0.427984 22.095600 40.985400 -0.000006 -0.000013 -6.709540 -2.573370 -62.776500 11.754300 -0.000000 0.000003 -0.000127 -0.001260 -16.625600 -2.192510 6.469440 -0.000001 174.207000 22.573900 178.807000 -39.081100 -0.002282 -0.040193 -0.046137 0.143863 18.973100 -40.985400 0.000008 0.000006 -4.358210 0.779796 -62.098100 -11.754300 -0.000006 -0.000006 -0.003308 -0.044035 -18.364000
0.000000 0.000000 0.000000 0.000000 0.000000 -0.000000 -0.551377 92.164900 -1.855810 87.796400 -0.699115 3.174590 15.735700 0.000005 -0.000001 82.729000 85.617800 -82.269400 8.984550 -0.406207 -0.000000 0.932923 -1.136210 0.927734 16.377300 -0.000001 -0.000001 -1.430960 -2.535230 0.597503 6.456720 -0.000001 -0.000000 0.622124 -1.817530 -0.403910 12.994200 -0.242716 4.980390 -89.735100 -0.787887 -71.414200 5.348090 -0.000007 -0.000001 -68.759200 32.290600 -12.536500 24.328600 0.000019 0.000005 1.919770 4.287180 -24.150300 22.291600 -0.000001 0.000005 5.784990 5.544910 -8.467680 12.994500 -0.242716 -4.980390 88.097300 5.224270 -69.955900 -5.348130 -0.000001 -0.000004 -66.948200 25.467600 -12.312500 -24.328900 0.000322 -0.000009 -1.160930 -3.339050 -19.167200 -22.291500 -0.000108 -0.000004 9.879100 5.558140 -9.096310 -2.192480 -6.469440 -0.000000 -169.510000 -17.460800 -4.106880 39.081100 -0.000007 -0.000012 -0.172875 0.427213 22.031300 40.985400 -0.000006 -0.000013 -6.684210 -2.552430 -62.697500 11.754300 -0.000000 0.000003 -0.000140 -0.001366 -16.629600 -2.192510 6.469440 -0.000001 174.246000 22.602800 178.741000 -39.081100 -0.002282 -0.040193 -0.044174 0.138289 18.955700 -40.985400 0.000008 0.000006 -4.219490 0.722557 -62.056200 -11.754300 -0.000006 -0.000006 -0.003471 -0.045817 -18.436600
0.000000 0.000000 0.000000 0.000000 0.000000 -0.000000 -0.528020 92.178700 -1.915960 87.815500 -0.678326 3.077970 15.735700 0.000005 -0.000001 82.791000 85.648300 -82.339400 8.984550 -0.406207 -0.000000 0.873430 -1.118940 0.911023 16.377300 -0.000001 -0.000001 -1.643410 -2.487810 0.606381 6.456720 -0.000001 -0.000000 0.182092 -1.796560 -0.329911 12.994200 -0.242716 4.980390 -89.697800 -0.889684 -71.237800 5.348090 -0.000007 -0.000001 -67.706600 30.148100 -13.095700 24.328600 0.000019 0.000005 1.612930 3.591740 -24.202200 22.291600 -0.000001 0.000005 6.029080 5.542990 -8.379160 12.994500 -0.242716 -4.980390 88.163900 4.989670 -69.767700 -5.348130 -0.000001 -0.000004 -66.041400 22.828600 -12.861400 -24.328900 0.000322 -0.000009 -1.336260 -3.809420 -19.332100 -22.291500 -0.000108 -0.000004 9.990130 5.556250 -9.003920 -2.192480 -6.469440 -0.000000 -169.603000 -17.419900 -4.229140 39.081100 -0.000007 -0.000012 -0.171172 0.424393 21.966100 40.985400 -0.000006 -0.000013 -6.661120 -2.628540 -62.631300 11.754300 -0.000000 0.000003 -0.000127 -0.001263 -16.625700 -2.192510 6.469440 -0.000001 174.277000 22.611500 178.624000 -39.081100 -0.002282 -0.040193 -0.041258 0.130332 18.884000 -40.985400 0.000008 0.000006 -4.233860 0.682626 -61.975100 -11.754300 -0.000006 -0.000006 -0.003502 -0.046154 -18.450300
0.000000 0.000000 0.000000 0.000000 0.000000 -0.000000 -0.507869 92.196000 -1.991330 87.824100 -0.658524 3.026600 15.735700 0.000005 -0.000001 82.787000 85.671300 -82.337300 8.984550 -0.406207 -0.000000 0.827682 -1.113830 0.906651 16.377300 -0.000001 -0.000001 -1.838630 -2.435450 0.591310 6.456720 -0.000001 -0.000000 -0.242181 -1.745080 -0.220797 12.994200 -0.242716 4.980390 -89.647400 -1.027650 -71.060300 5.348090 -0.000007 -0.000001 -65.917900 27.177700 -14.130900 24.328600 0.000019 0.000005 1.189910 2.687990 -23.885400 22.291600 -0.000001 0.000005 6.291370 5.536680 -8.092650 12.994500 -0.242716 -4.980390 88.257100 4.697560 -69.617400 -5.348130 -0.000001 -0.000004 -64.330700 19.928500 -14.031200 -24.328900 0.000322 -0.000009 -1.307060 -3.803590 -18.966500 -22.291500 -0.000108 -0.000004 9.787690 5.549810 -8.697270 -2.192480 -6.469440 -0.000000 -169.667000 -17.440800 -4.311430 39.081100 -0.000007 -0.000012 -0.167975 0.418027 21.891900 40.985400 -0.000006 -0.000013 -6.617570 -2.628430 -62.539900 11.754300 -0.000000 0.000003 -0.000124 -0.001238 -16.624800 -2.192510 6.469440 -0.000001 174.331000 22.601300 178.508000 -39.081100 -0.002282 -0.040193 -0.037536 0.119554 18.868600 -40.985400 0.000008 0.000006 -4.018840 0.614875 -61.921700 -11.754300 -0.000006 -0.000006 -0.003629 -0.047529 -18.506300
